<?xml version="1.0" encoding="UTF-8" standalone="no"?>
<svg
   width="64"
   height="64"
   viewBox="0 0 32 32"
   version="1.1"
   id="svg1674"
   sodipodi:docname="bash-black.svg"
   inkscape:version="1.2 (dc2aedaf03, 2022-05-15)"
   xmlns:inkscape="http://www.inkscape.org/namespaces/inkscape"
   xmlns:sodipodi="http://sodipodi.sourceforge.net/DTD/sodipodi-0.dtd"
   xmlns="http://www.w3.org/2000/svg"
   xmlns:svg="http://www.w3.org/2000/svg">
  <defs
     id="defs1678" />
  <sodipodi:namedview
     id="namedview1676"
     pagecolor="#ffffff"
     bordercolor="#666666"
     borderopacity="1.0"
     inkscape:showpageshadow="2"
     inkscape:pageopacity="0.0"
     inkscape:pagecheckerboard="0"
     inkscape:deskcolor="#d1d1d1"
     showgrid="false"
     showguides="true"
     inkscape:zoom="9.1161647"
     inkscape:cx="34.992786"
     inkscape:cy="40.806634"
     inkscape:window-width="1786"
     inkscape:window-height="1038"
     inkscape:window-x="120"
     inkscape:window-y="0"
     inkscape:window-maximized="0"
     inkscape:current-layer="svg1674">
    <sodipodi:guide
       position="24.202005,16.195799"
       orientation="0,-1"
       id="guide1797"
       inkscape:locked="false" />
  </sodipodi:namedview>
  <path
     id="rect1959"
     style="color:#000000;fill:#666;stroke-width:0.89426;stroke-linecap:round;stroke-linejoin:round;paint-order:stroke fill markers"
     d="m 5.9819925,3.5000054 c -1.3605493,0 -2.4819927,1.0886455 -2.4819926,2.4073181 V 19.696097 c 0,1.136751 0.4559196,2.741535 1.6410602,3.975513 l 4.4565872,4.607435 c 0.1501652,0.12151 0.3384407,0.190016 0.5340097,0.194305 0.09521,0.01678 0.193264,0.02665 0.293617,0.02665 H 26.881116 C 27.778147,28.5 28.5,27.800366 28.5,26.930945 V 10.980746 C 28.4981,10.572308 28.45756,10.339748 28.163804,9.9017515 L 24.67766,5.5273111 C 23.971966,4.6422429 23.282841,4.0620429 22.436947,3.7785665 21.591054,3.4950901 20.721328,3.5000054 19.545133,3.5000054 Z m 0,1.6748056 H 19.545133 c 1.162295,0 1.860835,0.031583 2.32587,0.1874269 0.465038,0.1558433 0.830619,0.4271201 1.438811,1.1899029 l 2.28063,2.8595499 h -15.16517 c -0.8970311,0 -1.6197708,0.6996343 -1.6197708,1.5690553 v 14.04842 L 6.406007,22.529854 C 5.6293815,21.721225 5.2262178,20.298188 5.2262178,19.696097 V 5.9073235 c 0,-0.420168 0.3222636,-0.7325125 0.7557747,-0.7325125 z m 8.1627225,7.69482 h 1.158499 v 1.614623 c 0.603062,0.09651 1.15055,0.284991 1.539936,0.677488 0.440394,0.443911 0.665626,1.027384 0.674165,1.707476 l 0.0035,0.213219 h -1.523969 v -0.2115 c 0,-0.32792 -0.08414,-0.565337 -0.246603,-0.747988 l -0.0035,-0.0034 -0.0018,-0.0018 C 15.645493,15.997265 15.463,15.953651 15.303187,15.890774 v 2.400439 l 0.328212,0.104891 h 0.0018 c 0.621641,0.190124 1.119687,0.521516 1.46897,0.987001 0.34832,0.464196 0.523365,1.014822 0.523365,1.628378 0,0.682413 -0.236178,1.275366 -0.699002,1.733269 l -0.0018,0.0018 c -0.406242,0.408135 -0.982194,0.609047 -1.621546,0.711878 v 1.614623 h -0.940283 -0.218216 v -1.607745 c -0.681579,-0.09292 -1.288343,-0.28212 -1.7138,-0.679207 l -0.0018,-0.0018 -0.0018,-0.0018 c -0.466008,-0.451665 -0.708555,-1.054773 -0.725614,-1.76594 l -0.0053,-0.216658 h 1.525743 v 0.211576 c 0,0.337697 0.09574,0.5858 0.287407,0.785817 0.144685,0.144907 0.392901,0.20757 0.635135,0.275123 V 19.48971 l -0.170316,-0.04815 c -0.636795,-0.189287 -1.147479,-0.515356 -1.50617,-0.973241 h -0.0018 v -0.0018 c -0.348935,-0.456561 -0.52514,-1.001442 -0.52514,-1.607745 1e-6,-0.665289 0.21787,-1.239622 0.649328,-1.683403 l 0.0018,-0.0018 c 0.390146,-0.393263 0.942601,-0.582977 1.552355,-0.679209 z m 0,3.010867 c -0.16225,0.05938 -0.344228,0.102784 -0.448853,0.2115 -0.153594,0.168049 -0.234183,0.379759 -0.234183,0.674049 0,0.312269 0.08184,0.566243 0.246602,0.785817 0.09903,0.13198 0.281476,0.198131 0.436434,0.285439 z m 1.158499,4.013343 v 2.163147 c 0.198037,-0.06862 0.412658,-0.123804 0.53401,-0.254487 0.177857,-0.191537 0.267892,-0.433368 0.267892,-0.766903 0,-0.303637 -0.08122,-0.553383 -0.246603,-0.773781 l -0.0018,-0.0018 v -0.0018 c -0.124245,-0.17278 -0.330267,-0.273296 -0.553525,-0.364536 z m 4.350141,3.413233 h 6.214739 v 1.298232 h -5.996523 -0.218216 z" />
</svg>
