<?xml version="1.0" encoding="UTF-8" standalone="no"?>
<svg
   id="svg8"
   version="1.1"
   viewBox="0 0 50 50"
   height="50"
   width="50"
   sodipodi:docname="css.svg"
   xml:space="preserve"
   inkscape:version="1.2 (dc2aedaf03, 2022-05-15)"
   xmlns:inkscape="http://www.inkscape.org/namespaces/inkscape"
   xmlns:sodipodi="http://sodipodi.sourceforge.net/DTD/sodipodi-0.dtd"
   xmlns="http://www.w3.org/2000/svg"
   xmlns:svg="http://www.w3.org/2000/svg"
   xmlns:rdf="http://www.w3.org/1999/02/22-rdf-syntax-ns#"
   xmlns:cc="http://creativecommons.org/ns#"
   xmlns:dc="http://purl.org/dc/elements/1.1/"><sodipodi:namedview
     id="namedview5153"
     pagecolor="#ffffff"
     bordercolor="#666666"
     borderopacity="1.0"
     inkscape:showpageshadow="2"
     inkscape:pageopacity="0.0"
     inkscape:pagecheckerboard="0"
     inkscape:deskcolor="#d1d1d1"
     showgrid="false"
     showguides="true"
     inkscape:zoom="4.7518518"
     inkscape:cx="35.249416"
     inkscape:cy="33.144973"
     inkscape:window-width="1073"
     inkscape:window-height="793"
     inkscape:window-x="808"
     inkscape:window-y="79"
     inkscape:window-maximized="0"
     inkscape:current-layer="svg8" /><defs
     id="defs2"><filter
       id="filter5288"
       style="color-interpolation-filters:sRGB"
       x="0"
       y="0"
       width="1.0404949"
       height="1.0275894"><feFlood
         id="feFlood5278"
         result="flood"
         flood-color="rgb(0,0,0)"
         flood-opacity="1" /><feComposite
         id="feComposite5280"
         result="composite1"
         operator="in"
         in2="SourceGraphic"
         in="flood" /><feOffset
         id="feOffset5284"
         result="offset"
         dy="1"
         dx="1" /><feComposite
         id="feComposite5286"
         result="composite2"
         operator="over"
         in2="offset"
         in="SourceGraphic" /></filter></defs><metadata
     id="metadata5"><rdf:RDF><cc:Work
         rdf:about=""><dc:format>image/svg+xml</dc:format><dc:type
           rdf:resource="http://purl.org/dc/dcmitype/StillImage" /></cc:Work></rdf:RDF></metadata><!--
  <text
     xml:space="preserve"
     style="font-size:10px;line-height:100%;font-family:'Open Sans',sans-serif;-inkscape-font-specification:'Open Sans, Ultra-Bold';letter-spacing:-2px;fill:#333366;filter:url(#filter5288)"
     x="45.824997"
     y="3.5875"
     id="text5048"><tspan
       style="font-weight:800;font-size:49.38888931px"
       y="41.587502"
       x="45.824997"
       id="tspan5046">CSS</tspan></text>
  --><path
     id="path5750"
     style="color:#000000;fill:#48bbd9;fill-opacity:1;stroke-linejoin:round;-inkscape-stroke:none"
     d="m 7.6606095,4.7918333 c -0.546315,5.46e-5 -0.999945,0.4536854 -1,1 v 9.9999997 c 5.5e-5,0.546314 0.453685,0.999945 1,1 h 9.9999995 c 0.546314,-5.5e-5 0.999945,-0.453686 1,-1 V 5.7918333 c -5.5e-5,-0.5463146 -0.453686,-0.9999454 -1,-1 z" /><path
     id="path5756"
     style="color:#000000;fill:#48bbd9;fill-opacity:1;stroke-linejoin:round;-inkscape-stroke:none"
     d="m 21.660609,18.791833 c -0.546314,5.5e-5 -0.999945,0.453686 -1,1 v 10 c 5.5e-5,0.546314 0.453686,0.999945 1,1 h 10 c 0.546314,-5.5e-5 0.999945,-0.453686 1,-1 v -10 c -5.5e-5,-0.546314 -0.453686,-0.999945 -1,-1 z" /><path
     id="path5762"
     style="color:#000000;fill:#48bbd9;fill-opacity:1;stroke-linejoin:round;-inkscape-stroke:none"
     d="m 35.660609,32.791833 c -0.546314,5.5e-5 -0.999945,0.453686 -1,1 v 10 c 5.5e-5,0.546314 0.453686,0.999945 1,1 h 10 c 0.546314,-5.5e-5 0.999945,-0.453686 1,-1 v -10 c -5.5e-5,-0.546314 -0.453686,-0.999945 -1,-1 z" /><path
     id="path5768"
     style="color:#000000;fill:#2f77b0;fill-opacity:1;stroke-linejoin:round;-inkscape-stroke:none"
     d="m 7.6606095,18.791833 c -0.546315,5.5e-5 -0.999945,0.453686 -1,1 v 10 c 5.5e-5,0.546314 0.453685,0.999945 1,1 h 9.9999995 c 0.546314,-5.5e-5 0.999945,-0.453686 1,-1 v -10 c -5.5e-5,-0.546314 -0.453686,-0.999945 -1,-1 z" /><path
     id="path5774"
     style="color:#000000;fill:#2f77b0;fill-opacity:1;stroke-linejoin:round;-inkscape-stroke:none"
     d="m 21.660609,32.791833 c -0.546314,5.5e-5 -0.999945,0.453686 -1,1 v 10 c 5.5e-5,0.546314 0.453686,0.999945 1,1 h 10 c 0.546314,-5.5e-5 0.999945,-0.453686 1,-1 v -10 c -5.5e-5,-0.546314 -0.453686,-0.999945 -1,-1 z" /><path
     id="path5780"
     style="color:#000000;fill:#000000;fill-opacity:1;stroke-linejoin:round;-inkscape-stroke:none"
     d="m 7.6606095,32.791833 c -0.546315,5.5e-5 -0.999945,0.453686 -1,1 v 10 c 5.5e-5,0.546314 0.453685,0.999945 1,1 h 9.9999995 c 0.546314,-5.5e-5 0.999945,-0.453686 1,-1 v -10 c -5.5e-5,-0.546314 -0.453686,-0.999945 -1,-1 z" /></svg>
