<?xml version="1.0" encoding="UTF-8" standalone="no"?>
<svg
   width="64"
   height="50"
   version="1.1"
   id="svg326"
   sodipodi:docname="docker.svg"
   inkscape:version="1.2 (dc2aedaf03, 2022-05-15)"
   xml:space="preserve"
   xmlns:inkscape="http://www.inkscape.org/namespaces/inkscape"
   xmlns:sodipodi="http://sodipodi.sourceforge.net/DTD/sodipodi-0.dtd"
   xmlns:xlink="http://www.w3.org/1999/xlink"
   xmlns="http://www.w3.org/2000/svg"
   xmlns:svg="http://www.w3.org/2000/svg"><sodipodi:namedview
     id="namedview328"
     pagecolor="#868686"
     bordercolor="#666666"
     borderopacity="1.0"
     inkscape:showpageshadow="2"
     inkscape:pageopacity="0"
     inkscape:pagecheckerboard="0"
     inkscape:deskcolor="#d1d1d1"
     inkscape:document-units="pt"
     showgrid="false"
     inkscape:zoom="3.88"
     inkscape:cx="46.134021"
     inkscape:cy="13.402062"
     inkscape:window-width="1786"
     inkscape:window-height="1038"
     inkscape:window-x="554"
     inkscape:window-y="0"
     inkscape:window-maximized="0"
     inkscape:current-layer="svg326" /><defs
     id="defs295"><linearGradient
       id="linearGradient1389"><stop
         style="stop-color:#ffffff;stop-opacity:1;"
         offset="0"
         id="stop1385" /><stop
         style="stop-color:#bdbfc2;stop-opacity:1;"
         offset="1"
         id="stop1387" /></linearGradient><linearGradient
       id="linearGradient172"><stop
         style="stop-color:#3f2600;stop-opacity:0.6;"
         offset="0"
         id="stop173" /><stop
         style="stop-color:#3f2600;stop-opacity:0;"
         offset="1"
         id="stop174" /></linearGradient><linearGradient
       id="linearGradient167"><stop
         style="stop-color:#ffffff;stop-opacity:0.65;"
         offset="0"
         id="stop168" /><stop
         style="stop-color:#ffffff;stop-opacity:0;"
         offset="1"
         id="stop169" /></linearGradient><linearGradient
       id="linearGradient162"><stop
         style="stop-color:#ffa63f;stop-opacity:1;"
         offset="0"
         id="stop163" /><stop
         style="stop-color:#ffff00;stop-opacity:1;"
         offset="1"
         id="stop164" /></linearGradient><linearGradient
       id="linearGradient153"><stop
         style="stop-color:#ffeed7;stop-opacity:1;"
         offset="0"
         id="stop154" /><stop
         style="stop-color:#bdbfc2;stop-opacity:1;"
         offset="1"
         id="stop155" /></linearGradient><linearGradient
       id="linearGradient138"><stop
         style="stop-color:#ffffff;stop-opacity:0.8;"
         offset="0"
         id="stop139" /><stop
         style="stop-color:#ffffff;stop-opacity:0;"
         offset="1"
         id="stop140" /></linearGradient><linearGradient
       xlink:href="#linearGradient138"
       id="linearGradient141"
       x1="0.47424799"
       y1="0.020191999"
       x2="0.417539"
       y2="0.90125799"
       gradientUnits="objectBoundingBox" /><linearGradient
       xlink:href="#linearGradient167"
       id="linearGradient142"
       x1="0.55880702"
       y1="0.031192999"
       x2="0.553922"
       y2="0.94531101"
       gradientUnits="objectBoundingBox" /><linearGradient
       xlink:href="#linearGradient167"
       id="linearGradient143"
       x1="0.46557701"
       y1="0.028819799"
       x2="0.41365999"
       y2="0.93366498"
       gradientUnits="objectBoundingBox" /><linearGradient
       xlink:href="#linearGradient167"
       id="linearGradient144"
       x1="0.70346397"
       y1="0.059404202"
       x2="0.64553201"
       y2="0.94063401"
       gradientUnits="objectBoundingBox" /><linearGradient
       xlink:href="#linearGradient167"
       id="linearGradient145"
       x1="0.46741399"
       y1="-0.036155298"
       x2="0.86741799"
       y2="0.75857902"
       gradientUnits="objectBoundingBox" /><linearGradient
       xlink:href="#linearGradient167"
       id="linearGradient146"
       x1="0.57152498"
       y1="0.023441499"
       x2="0.57143003"
       y2="0.71875"
       gradientUnits="objectBoundingBox" /><linearGradient
       xlink:href="#linearGradient167"
       id="linearGradient147"
       x1="0.5"
       y1="0.0234362"
       x2="0.5"
       y2="0.8125"
       gradientUnits="objectBoundingBox" /><linearGradient
       xlink:href="#linearGradient167"
       id="linearGradient148"
       x1="0.50799799"
       y1="0.37435901"
       x2="0.51599997"
       y2="0.92820501"
       gradientUnits="objectBoundingBox" /><linearGradient
       xlink:href="#linearGradient138"
       id="linearGradient149"
       x1="0.5"
       y1="0.131707"
       x2="0.50400001"
       y2="0.94634098"
       gradientUnits="objectBoundingBox" /><linearGradient
       xlink:href="#linearGradient167"
       id="linearGradient150"
       x1="-0.30509499"
       y1="0.099496603"
       x2="0.156323"
       y2="0.94191301"
       gradientUnits="objectBoundingBox"
       gradientTransform="matrix(-0.928523,0.283938,0.435332,0.943857,-1.91327e-7,5.49908e-8)" /><linearGradient
       xlink:href="#linearGradient167"
       id="linearGradient151"
       x1="0.433979"
       y1="0.022184599"
       x2="0.487055"
       y2="1.02569"
       gradientUnits="objectBoundingBox" /><linearGradient
       xlink:href="#linearGradient153"
       id="linearGradient152"
       x1="0.5"
       y1="0.89842999"
       x2="0.5"
       y2="0.40625"
       gradientUnits="objectBoundingBox"
       spreadMethod="reflect" /><linearGradient
       xlink:href="#linearGradient153"
       id="linearGradient156"
       x1="0.43568701"
       y1="0.98882002"
       x2="0.453989"
       y2="0.23093501"
       gradientUnits="objectBoundingBox" /><linearGradient
       xlink:href="#linearGradient153"
       id="linearGradient157"
       x1="0.49180499"
       y1="1.15284"
       x2="0.49482101"
       y2="0.41252401"
       gradientUnits="objectBoundingBox" /><linearGradient
       xlink:href="#linearGradient153"
       id="linearGradient158"
       x1="0.51730198"
       y1="0.85418499"
       x2="0.49843901"
       y2="0.136172"
       gradientUnits="objectBoundingBox" /><linearGradient
       xlink:href="#linearGradient153"
       id="linearGradient159"
       x1="0.46201"
       y1="0.87917101"
       x2="0.49215299"
       y2="0.096282303"
       gradientUnits="objectBoundingBox" /><linearGradient
       xlink:href="#linearGradient162"
       id="linearGradient161"
       x1="0.50086302"
       y1="0.34872901"
       x2="0.41209599"
       y2="0.98558098"
       gradientUnits="objectBoundingBox" /><linearGradient
       xlink:href="#linearGradient162"
       id="linearGradient165"
       x1="0.60399801"
       y1="0.51020199"
       x2="0.46399999"
       y2="0.98367399"
       gradientUnits="objectBoundingBox" /><linearGradient
       xlink:href="#linearGradient162"
       id="linearGradient166"
       x1="0.50000501"
       y1="0.191616"
       x2="0.50800002"
       y2="0.97005898"
       gradientUnits="objectBoundingBox" /><radialGradient
       xlink:href="#linearGradient172"
       id="radialGradient171"
       cx="0.5"
       cy="0.5"
       fx="0.5"
       fy="0.5"
       r="0.5"
       gradientUnits="objectBoundingBox" /><radialGradient
       xlink:href="#linearGradient172"
       id="radialGradient176" /><linearGradient
       xlink:href="#linearGradient153"
       id="linearGradient178"
       x1="0.94027299"
       y1="1.2934099"
       x2="0.19452"
       y2="-0.675295"
       gradientUnits="objectBoundingBox" /><radialGradient
       xlink:href="#linearGradient172"
       id="radialGradient1399"
       gradientTransform="matrix(1.4818268,0,0,0.39679691,-349.5468,157.94132)"
       cx="446.77762"
       cy="1219.4125"
       fx="446.77762"
       fy="1219.4125"
       r="195.07191"
       gradientUnits="userSpaceOnUse" /><linearGradient
       xlink:href="#linearGradient153"
       id="linearGradient1401"
       gradientUnits="userSpaceOnUse"
       x1="400.57785"
       y1="369.53015"
       x2="400.84448"
       y2="304.07886"
       gradientTransform="matrix(-0.96493873,-0.01291555,-0.03671998,2.5569228,862.8276,-357.26968)" /><linearGradient
       xlink:href="#linearGradient138"
       id="linearGradient1403"
       gradientUnits="userSpaceOnUse"
       x1="303.01761"
       y1="237.93179"
       x2="297.0856"
       y2="330.09561"
       gradientTransform="matrix(1.4132361,-0.0796503,-0.04119768,1.0713842,-108.6094,-190.01368)" /><linearGradient
       xlink:href="#linearGradient153"
       id="linearGradient1405"
       gradientUnits="userSpaceOnUse"
       gradientTransform="matrix(1.0650795,-0.06167214,0.0944585,1.6443046,-165.9954,-241.86968)"
       x1="378.93771"
       y1="278.60202"
       x2="380.27319"
       y2="243.91606" /><linearGradient
       xlink:href="#linearGradient153"
       id="linearGradient1407"
       gradientUnits="userSpaceOnUse"
       x1="381.38742"
       y1="277.495"
       x2="380.5517"
       y2="245.68338"
       gradientTransform="matrix(-1.4785291,0.04042534,0.03886407,1.9024316,896.7076,-349.02968)" /><linearGradient
       xlink:href="#linearGradient167"
       id="linearGradient1409"
       gradientUnits="userSpaceOnUse"
       gradientTransform="matrix(-0.39218229,-0.02976458,-0.05731006,0.58249559,502.7436,22.75972)"
       x1="379.09573"
       y1="240.92712"
       x2="376.79556"
       y2="281.01636" /><linearGradient
       xlink:href="#linearGradient167"
       id="linearGradient1411"
       gradientUnits="userSpaceOnUse"
       x1="389.63535"
       y1="242.28218"
       x2="387.06866"
       y2="281.32513"
       gradientTransform="matrix(0.29141594,-0.03333031,0.05061034,0.48811437,138.5816,50.73832)" /><linearGradient
       xlink:href="#linearGradient1389"
       id="linearGradient1413"
       gradientUnits="userSpaceOnUse"
       spreadMethod="reflect"
       x1="437.57941"
       y1="528.87177"
       x2="437.57941"
       y2="394.10361"
       gradientTransform="matrix(1.0160687,0,0,1.53779,-125.2984,-232.48268)" /><linearGradient
       xlink:href="#linearGradient153"
       id="linearGradient1415"
       gradientUnits="userSpaceOnUse"
       x1="375.17325"
       y1="419.78485"
       x2="377.48541"
       y2="324.03815"
       gradientTransform="matrix(0.9027839,-0.07217411,0.15730007,2.0039596,-202.3394,-230.19068)" /><linearGradient
       xlink:href="#linearGradient138"
       id="linearGradient1417"
       gradientUnits="userSpaceOnUse"
       x1="320.75104"
       y1="498.17776"
       x2="321.32224"
       y2="614.50439"
       gradientTransform="matrix(1.3994837,0,0,1.1399824,-140.7104,-217.80968)" /><linearGradient
       xlink:href="#linearGradient167"
       id="linearGradient1419"
       gradientUnits="userSpaceOnUse"
       x1="322.48257"
       y1="435.26761"
       x2="323.2514"
       y2="488.48251"
       gradientTransform="matrix(1.2781848,0,0,0.99078805,-100.1294,-164.33068)" /><linearGradient
       xlink:href="#linearGradient167"
       id="linearGradient1421"
       gradientUnits="userSpaceOnUse"
       x1="411.2215"
       y1="242.94365"
       x2="411.2215"
       y2="331.44858"
       gradientTransform="matrix(0.71463375,0,0,2.1864338,-125.2984,-231.75768)" /><linearGradient
       xlink:href="#linearGradient167"
       id="linearGradient1423"
       gradientUnits="userSpaceOnUse"
       x1="867.34546"
       y1="234.73897"
       x2="867.33453"
       y2="314.83911"
       gradientTransform="matrix(0.71583375,0,0,2.1827675,-125.2984,-231.75768)" /><linearGradient
       xlink:href="#linearGradient162"
       id="linearGradient1425"
       gradientUnits="userSpaceOnUse"
       x1="236.25362"
       y1="657.11133"
       x2="212.5099"
       y2="737.41229"
       gradientTransform="matrix(1.2643925,0,0,1.2357712,-125.2984,-231.75768)" /><linearGradient
       xlink:href="#linearGradient153"
       id="linearGradient1427"
       gradientUnits="userSpaceOnUse"
       x1="381.56607"
       y1="655.73102"
       x2="279.64313"
       y2="386.66583"
       gradientTransform="matrix(0.63738789,0.28617598,-0.22489266,0.57927107,389.8156,76.21132)" /><linearGradient
       xlink:href="#linearGradient162"
       id="linearGradient1429"
       gradientUnits="userSpaceOnUse"
       x1="218.11714"
       y1="630.30475"
       x2="203.12654"
       y2="737.8537"
       gradientTransform="matrix(-1.1800109,0.4273134,0.47064661,1.1534176,417.5906,-278.07368)" /><linearGradient
       xlink:href="#linearGradient167"
       id="linearGradient1431"
       gradientUnits="userSpaceOnUse"
       gradientTransform="matrix(-0.95239592,0.34640009,0.42082546,0.94872982,403.5756,-128.59468)"
       x1="117.88966"
       y1="587.23602"
       x2="182.24524"
       y2="704.73077" /><linearGradient
       xlink:href="#linearGradient167"
       id="linearGradient1433"
       gradientUnits="userSpaceOnUse"
       x1="223.10072"
       y1="570.41809"
       x2="230.53499"
       y2="710.97723"
       gradientTransform="matrix(1.0038119,-0.05226007,-0.01740863,1.0462687,-66.5614,-92.71798)" /><linearGradient
       xlink:href="#linearGradient167"
       id="linearGradient1435"
       gradientUnits="userSpaceOnUse"
       x1="316.93988"
       y1="474.01779"
       x2="371.60889"
       y2="582.63507"
       gradientTransform="matrix(0.37423628,0.15925268,-0.12093484,0.32235493,413.7696,254.03832)" /><linearGradient
       xlink:href="#linearGradient162"
       id="linearGradient1437"
       gradientUnits="userSpaceOnUse"
       x1="284.68652"
       y1="410.46326"
       x2="285.45923"
       y2="485.69934"
       gradientTransform="matrix(1.523355,0,0,1.0256962,-125.2984,-231.75768)" /><linearGradient
       xlink:href="#linearGradient167"
       id="linearGradient1439"
       gradientUnits="userSpaceOnUse"
       x1="288.82358"
       y1="398.85422"
       x2="288.37628"
       y2="482.55939"
       gradientTransform="matrix(0.76723842,0,0,0.48747518,81.6136,-12.43538)" /></defs><path
     style="fill:#2497ed;fill-opacity:1;stroke:none;stroke-width:0.126225;stroke-opacity:1"
     d="M 22.877111,44.448504 C 21.562754,44.361993 19.277055,44.018412 18.010694,43.716998 14.788808,42.950133 12.819067,41.923923 11.065904,40.09886 8.2069985,37.122705 6.5782305,32.638441 6.2811529,26.925667 6.1932744,25.235752 6.3151038,24.796246 7.0134421,24.283902 7.3691534,24.022932 7.40276,24.022363 26.452194,23.9551 c 17.921588,-0.06327 19.128284,-0.08124 19.836263,-0.295263 0.772662,-0.23358 1.455111,-0.540589 1.455111,-0.654602 0,-0.03523 -0.137818,-0.336043 -0.306265,-0.668456 -0.806852,-1.592243 -0.956041,-3.807354 -0.387736,-5.756914 0.336388,-1.153976 0.972657,-2.498897 1.484078,-3.136994 l 0.284787,-0.355328 0.630159,0.345737 c 0.346582,0.190156 1.089134,0.806465 1.65011,1.369577 1.113422,1.117663 1.918721,2.490993 2.201338,3.754085 l 0.149681,0.66896 h 2.101281 c 2.390496,0 3.379261,0.214783 4.51494,0.980752 0.711863,0.480123 0.718929,0.554981 0.158868,1.682961 -1.21274,2.442495 -4.127525,4.083802 -7.260567,4.08841 l -0.648816,9.63e-4 -0.544164,1.293814 c -4.230825,10.059323 -11.317537,15.546414 -21.888627,16.947944 -1.44584,0.191692 -5.534381,0.32465 -7.005524,0.227815 z M 11.040587,22.843736 c -0.122845,-0.07796 -0.152548,-0.66413 -0.126224,-2.491024 l 0.03442,-2.389065 h 2.713853 2.71385 l 0.03442,2.389065 c 0.02632,1.826894 -0.0033,2.41306 -0.126225,2.491024 -0.08835,0.05607 -1.268281,0.101958 -2.622049,0.101958 -1.353772,0 -2.533695,-0.04588 -2.622052,-0.101958 z m 6.539487,-0.13833 c -0.154058,-0.287861 -0.17625,-4.411397 -0.02503,-4.649667 0.07825,-0.123289 0.726988,-0.152468 2.806587,-0.126225 l 2.704812,0.03413 0.03446,2.318741 c 0.02382,1.603301 -0.01015,2.372491 -0.110125,2.492956 -0.114273,0.13769 -0.682934,0.174218 -2.712317,0.174218 -2.409451,0 -2.575782,-0.01507 -2.698396,-0.244155 z m 6.840435,0.13833 c -0.122848,-0.07796 -0.152549,-0.66413 -0.126227,-2.491024 l 0.03442,-2.389065 h 2.713852 2.713851 l 0.03446,2.31874 c 0.02384,1.603301 -0.01016,2.372491 -0.110123,2.492956 -0.114064,0.137439 -0.66762,0.173811 -2.622088,0.172284 -1.362628,-9.63e-4 -2.549795,-0.04781 -2.638151,-0.103891 z m 6.539484,-0.13833 c -0.154059,-0.287861 -0.176248,-4.411397 -0.02503,-4.649667 0.07825,-0.123289 0.726987,-0.152468 2.806587,-0.126225 l 2.704811,0.03413 0.03446,2.318741 c 0.02384,1.603301 -0.01016,2.372491 -0.110124,2.492956 -0.114276,0.13769 -0.682935,0.174218 -2.712317,0.174218 -2.409453,0 -2.575784,-0.01507 -2.698399,-0.244155 z m 6.843305,0.160557 c -0.118632,-0.04787 -0.157784,-0.67244 -0.157784,-2.517009 V 17.89561 l 2.74541,0.03402 2.74541,0.03402 0.03446,2.31874 c 0.02384,1.603301 -0.01016,2.372492 -0.110126,2.492956 -0.114502,0.137963 -0.660135,0.172143 -2.622089,0.164253 -1.362625,-0.0055 -2.548503,-0.03862 -2.635283,-0.07364 z M 17.600879,16.613032 c -0.213087,-0.213086 -0.213087,-4.533 0,-4.746086 0.214092,-0.214094 5.16312,-0.214094 5.377213,0 0.213087,0.213086 0.213087,4.533 0,4.746086 -0.214093,0.214094 -5.163121,0.214094 -5.377213,0 z m 6.721879,-0.0078 c -0.03469,-0.09039 -0.04754,-1.213362 -0.02856,-2.495477 l 0.03451,-2.331112 h 2.713854 2.713851 v 2.461401 2.461401 l -2.685288,0.03408 c -2.113716,0.02684 -2.698718,-9.64e-4 -2.748364,-0.130289 z m 6.637235,-0.08483 c -0.07458,-0.139359 -0.130664,-1.118141 -0.130664,-2.280363 0,-1.162222 0.05608,-2.141001 0.130664,-2.280359 0.122776,-0.229408 0.289682,-0.244155 2.763462,-0.244155 2.284321,0 2.642934,0.02643 2.709409,0.199663 0.151019,0.393543 0.08498,4.538062 -0.07485,4.697896 -0.107847,0.107842 -0.888208,0.151469 -2.709413,0.151469 -2.399774,0 -2.566018,-0.01511 -2.688608,-0.244151 z m -0.05311,-6.138148 c -0.13266,-0.345701 -0.08653,-4.3466949 0.05311,-4.6076345 0.122615,-0.229104 0.288945,-0.2441541 2.698399,-0.2441541 2.029381,0 2.598041,0.036527 2.712318,0.1742175 0.09997,0.1204611 0.13395,0.8896558 0.110123,2.4929571 l -0.03446,2.318739 -2.730973,0.03398 c -2.407681,0.02996 -2.740156,0.01001 -2.80852,-0.168104 z"
     id="path6274"
     sodipodi:nodetypes="csssssssssscssscsssccssccsscccssssssscsssssscccsscsssscsssssscccssssssssssscccccssssssssssssssscss" /></svg>
