<svg class="svg-inline--fa fa-envelope fa-w-16" aria-hidden="true" data-icon="envelope" data-prefix="fas" focusable="false" role="img" version="1.1" viewBox="0 0 512 512" xmlns="http://www.w3.org/2000/svg">
 <path d="m502 191c3.9-3.1 9.7-.2 9.7 4.7v204c0 26-22 48-48 48h-416c-26 0-48-22-48-48v-204c0-5 5.7-7.8 9.7-4.7 22 17 52 40 154 114 21 15 57 48 92 48 36 .3 72-33 92-48 102-74 132-96 154-114zm-246 129c23 .4 57-29 73-41 133-96 143-105 173-129 5.8-4.5 9.2-12 9.2-19v-19c0-26-22-48-48-48h-416c-26 0-48 22-48 48v19c0 7.4 3.4 14 9.2 19 31 24 41 32 173 129 17 12 50 42 73 41z" fill="#fff"/>
</svg>
