<?xml version="1.0" encoding="UTF-8" standalone="no"?>
<svg
   viewBox="0 0 114 114"
   version="1.1"
   id="svg10"
   sodipodi:docname="git.svg"
   width="114"
   height="114"
   inkscape:version="1.2 (dc2aedaf03, 2022-05-15)"
   xmlns:inkscape="http://www.inkscape.org/namespaces/inkscape"
   xmlns:sodipodi="http://sodipodi.sourceforge.net/DTD/sodipodi-0.dtd"
   xmlns="http://www.w3.org/2000/svg"
   xmlns:svg="http://www.w3.org/2000/svg">
  <defs
     id="defs14" />
  <sodipodi:namedview
     id="namedview12"
     pagecolor="#ffffff"
     bordercolor="#666666"
     borderopacity="1.0"
     inkscape:showpageshadow="2"
     inkscape:pageopacity="0.0"
     inkscape:pagecheckerboard="0"
     inkscape:deskcolor="#d1d1d1"
     showgrid="false"
     inkscape:zoom="3.3236299"
     inkscape:cx="117.64246"
     inkscape:cy="61.077799"
     inkscape:window-width="1786"
     inkscape:window-height="1038"
     inkscape:window-x="535"
     inkscape:window-y="0"
     inkscape:window-maximized="0"
     inkscape:current-layer="svg10" />
  <path
     fill="#f05133"
     d="M 111.78,51.977 62.035,2.2381 c -2.8622,-2.8648 -7.5082,-2.8648 -10.374,0 l -10.329,10.33 13.102,13.102 c 3.0459,-1.0284 6.5371,-0.33888 8.9639,2.0884 2.4394,2.4424 3.124,5.9634 2.0698,9.0195 l 12.628,12.628 c 3.0551,-1.0528 6.58,-0.37262 9.0195,2.0712 3.4106,3.4096 3.4106,8.9345 0,12.345 -3.4111,3.4116 -8.936,3.4116 -12.349,0 -2.5645,-2.5665 -3.1988,-6.3345 -1.8999,-9.4942 l -11.777,-11.777 -0.001,30.991 c 0.8315,0.41162 1.6162,0.961 2.3091,1.6509 3.4096,3.4092 3.4096,8.9331 0,12.348 -3.4106,3.4091 -8.938,3.4091 -12.345,0 -3.4101,-3.4146 -3.4101,-8.9385 0,-12.348 0.84275,-0.84125 1.8179,-1.478 2.8584,-1.9048 v -31.279 c -1.041,-0.425 -2.015,-1.057 -2.859,-1.905 -2.583,-2.581 -3.2051,-6.372 -1.8804,-9.5439 l -12.916,-12.918 -34.106,34.105 c -2.8657,2.867 -2.8657,7.513 0,10.378 l 49.742,49.739 c 2.8638,2.8648 7.5082,2.8648 10.376,0 l 49.512,-49.504 c 2.8648,-2.8662 2.8648,-7.5136 0,-10.379"
     id="path8" />
</svg>
