<?xml version="1.0" encoding="UTF-8" standalone="no"?>
<svg
   version="1.0"
   width="64"
   height="64"
   viewBox="0 0 48 48.000001"
   preserveAspectRatio="xMidYMid"
   id="svg10"
   sodipodi:docname="js-green.svg"
   inkscape:version="1.2 (dc2aedaf03, 2022-05-15)"
   xmlns:inkscape="http://www.inkscape.org/namespaces/inkscape"
   xmlns:sodipodi="http://sodipodi.sourceforge.net/DTD/sodipodi-0.dtd"
   xmlns="http://www.w3.org/2000/svg"
   xmlns:svg="http://www.w3.org/2000/svg">
  <defs
     id="defs14" />
  <sodipodi:namedview
     id="namedview12"
     pagecolor="#ffffff"
     bordercolor="#666666"
     borderopacity="1.0"
     inkscape:showpageshadow="2"
     inkscape:pageopacity="0.0"
     inkscape:pagecheckerboard="0"
     inkscape:deskcolor="#d1d1d1"
     inkscape:document-units="pt"
     showgrid="false"
     inkscape:zoom="6.2591049"
     inkscape:cx="23.485786"
     inkscape:cy="43.696344"
     inkscape:window-width="1448"
     inkscape:window-height="895"
     inkscape:window-x="290"
     inkscape:window-y="143"
     inkscape:window-maximized="0"
     inkscape:current-layer="svg10" />
  <metadata
     id="metadata2">
Created by potrace 1.10, written by Peter Selinger 2001-2011
</metadata>
  <path
     id="rect905"
     style="fill:#25753a;fill-opacity:1;stroke:none;stroke-width:0.75;stroke-linecap:round;stroke-linejoin:round;paint-order:stroke fill markers"
     d="M 4.5 4.5 L 4.5 43.5 L 43.5 43.5 L 43.5 4.5 L 4.5 4.5 z M 33.823242 22.356445 C 33.976938 22.356908 34.134628 22.368117 34.413574 22.390137 C 35.551381 22.474555 36.414203 22.749287 37.22168 23.285156 C 37.65845 23.575113 38.293154 24.236119 38.645508 24.764648 C 38.810674 25.014232 38.947266 25.227508 38.947266 25.242188 C 38.947266 25.267879 36.278535 26.993321 36.183105 27.033691 C 36.153742 27.044702 36.069836 26.945472 35.956055 26.765625 C 35.856956 26.607799 35.64368 26.347043 35.478516 26.185547 C 35.012381 25.715742 34.553591 25.532227 33.845215 25.532227 C 33.221256 25.528557 32.816943 25.685919 32.468262 26.063965 C 32.226019 26.32456 32.116022 26.593348 32.090332 26.989746 C 32.060969 27.488913 32.197282 27.887662 32.516602 28.229004 C 32.850602 28.585028 33.356959 28.864022 34.869141 29.513672 C 36.869477 30.372532 37.871066 30.967965 38.645508 31.753418 C 39.049244 32.164497 39.285118 32.490612 39.52002 32.975098 C 39.861361 33.683473 40.012207 34.399798 40.012207 35.317383 C 40.012207 36.752486 39.560163 37.897186 38.642578 38.781738 C 37.780047 39.618576 36.668364 40.110614 35.185547 40.319824 C 34.59462 40.400574 33.437906 40.404244 32.821289 40.319824 C 30.464929 40.004176 28.722229 38.903141 27.606445 37.023926 C 27.463342 36.789023 27.433515 36.711253 27.470215 36.678223 C 27.528941 36.623168 30.321462 35.012695 30.354492 35.012695 C 30.369174 35.012695 30.475811 35.151477 30.593262 35.320313 C 31.452122 36.59025 32.520716 37.177734 33.952148 37.177734 C 34.799999 37.177734 35.481937 36.946535 35.915039 36.509766 C 36.043501 36.381304 36.186639 36.189953 36.241699 36.076172 C 36.524316 35.488916 36.399443 34.723002 35.95166 34.242188 C 35.588297 33.853131 35.01979 33.54127 33.489258 32.884277 C 32.366133 32.399793 31.716401 32.08658 31.239258 31.800293 C 29.363713 30.666157 28.523438 29.235551 28.523438 27.1875 C 28.523438 25.818461 28.948439 24.739534 29.840332 23.85498 C 30.706533 22.99612 31.870423 22.495852 33.257813 22.385742 C 33.520241 22.365572 33.669546 22.355983 33.823242 22.356445 z M 21.84668 22.570313 L 23.641113 22.570313 L 25.439941 22.570313 L 25.439941 29.077148 C 25.439941 33.393472 25.42534 35.687528 25.40332 35.893066 C 25.150068 37.922766 24.191896 39.288556 22.558594 39.949219 C 21.196896 40.496099 19.340647 40.539898 17.894531 40.059082 C 16.525494 39.603959 15.38746 38.612559 14.730469 37.302246 L 14.620605 37.08252 L 16.069336 36.202148 C 16.8658 35.721335 17.531218 35.320288 17.545898 35.312988 C 17.556909 35.309317 17.651861 35.453218 17.758301 35.629395 C 18.415292 36.752518 18.980062 37.152136 19.92334 37.148438 C 20.584001 37.144767 20.980266 37.015827 21.288574 36.70752 C 21.508795 36.487299 21.634771 36.249189 21.741211 35.849121 L 21.821777 35.544434 L 21.832031 29.055176 L 21.84668 22.570313 z " />
</svg>
