<?xml version="1.0" encoding="UTF-8" standalone="no"?>
<svg
   id="Layer_1"
   data-name="Layer 1"
   viewBox="0 0 500.00002 500"
   version="1.1"
   sodipodi:docname="mariadb.svg"
   width="500"
   height="500"
   inkscape:version="1.2 (dc2aedaf03, 2022-05-15)"
   xmlns:inkscape="http://www.inkscape.org/namespaces/inkscape"
   xmlns:sodipodi="http://sodipodi.sourceforge.net/DTD/sodipodi-0.dtd"
   xmlns="http://www.w3.org/2000/svg"
   xmlns:svg="http://www.w3.org/2000/svg"
   xmlns:rdf="http://www.w3.org/1999/02/22-rdf-syntax-ns#"
   xmlns:cc="http://creativecommons.org/ns#"
   xmlns:dc="http://purl.org/dc/elements/1.1/">
  <sodipodi:namedview
     id="namedview25"
     pagecolor="#ffffff"
     bordercolor="#666666"
     borderopacity="1.0"
     inkscape:showpageshadow="2"
     inkscape:pageopacity="0.0"
     inkscape:pagecheckerboard="0"
     inkscape:deskcolor="#d1d1d1"
     showgrid="false"
     inkscape:zoom="0.81295149"
     inkscape:cx="306.29134"
     inkscape:cy="116.85814"
     inkscape:window-width="1786"
     inkscape:window-height="1038"
     inkscape:window-x="619"
     inkscape:window-y="0"
     inkscape:window-maximized="0"
     inkscape:current-layer="Layer_1" />
  <defs
     id="defs4">
    <style
       id="style2">.cls-1{fill:#003545;}</style>
  </defs>
  <title
     id="title6">MDB-HLogo_RGB</title>
  <path
     class="cls-1"
     d="m 480.32989,103.66243 a 6.6583121,6.6583121 0 0 0 -4.46948,-1.53065 c -4.43888,0 -10.1788,3.06129 -13.2554,4.59193 -0.53573,0.29083 -0.949,0.50512 -1.23982,0.62757 a 41.817261,41.817261 0 0 1 -16.5463,4.2552 c -5.90828,0.18368 -11.00534,0.53572 -17.60244,1.22452 -39.30699,4.08681 -56.74106,34.08749 -73.59347,63.16977 -9.18389,15.79628 -18.64328,32.14358 -31.63847,44.81733 a 84.063103,84.063103 0 0 1 -8.55631,7.25527 c -13.43907,10.01042 -30.32211,17.09731 -43.51628,22.14845 -12.64315,4.82153 -26.44957,9.18388 -39.7968,13.37785 -12.24518,3.84192 -23.74033,7.48486 -34.34771,11.41862 -4.79093,1.77556 -8.86245,3.06129 -12.44416,4.33174 -9.65837,3.21435 -16.63812,5.54093 -26.80162,12.50537 -3.96437,2.70925 -7.94404,5.64808 -10.71453,7.86752 a 112.44129,112.44129 0 0 0 -21.19944,22.37806 132.5846,132.5846 0 0 1 -17.75551,21.42905 c -2.1429,2.09698 -5.95421,3.0613 -11.66352,3.0613 -6.688925,0 -14.801351,-1.37759 -23.388278,-2.8317 -8.83183,-1.53066 -17.985097,-3.0613 -25.822006,-3.0613 -6.382796,0 -11.250252,1.02553 -14.908496,3.15314 0,0 -6.122586,3.58171 -8.709379,8.20426 l 2.540873,1.14798 a 53.128738,53.128738 0 0 1 10.86759,7.76039 54.169579,54.169579 0 0 0 11.280864,8.03588 10.117573,10.117573 0 0 1 3.474569,2.31128 c -1.071453,1.53066 -2.648019,3.59702 -4.285811,5.75523 -9.061427,11.8472 -14.342157,19.33207 -11.311478,23.40358 a 9.3216369,9.3216369 0 0 0 4.591939,1.08676 c 19.745341,0 30.337414,-5.14296 43.761183,-11.63291 3.887842,-1.88268 7.898136,-3.82662 12.490076,-5.81646 7.836904,-3.39802 16.286074,-8.81652 25.225054,-14.57174 11.8472,-7.65324 24.09237,-15.47485 35.95488,-19.28616 a 97.961374,97.961374 0 0 1 30.16905,-4.23988 c 12.59722,0 25.76077,1.68371 38.49575,3.3215 9.50531,1.20921 19.33207,2.46433 28.97514,3.06128 3.75008,0.22961 7.22466,0.33675 10.59207,0.33675 a 118.16591,118.16591 0 0 0 13.51561,-0.7194 l 1.07146,-0.36736 c 6.76545,-4.16335 9.9339,-13.08702 13.01049,-21.70457 1.97454,-5.55624 3.62763,-10.54614 6.19913,-13.77581 a 4.2705036,4.2705036 0 0 1 0.52041,-0.42858 0.61225859,0.61225859 0 0 1 0.76531,0.13776 c 0,0 0,0.0765 0,0.22959 -1.62247,33.76606 -15.15339,55.1798 -28.8986,74.22105 l -9.18387,9.84206 c 0,0 12.84212,0 20.1433,-2.81639 26.66387,-7.97467 46.80717,-25.54649 61.45547,-53.57263 a 228.70919,228.70919 0 0 0 9.67368,-22.10254 c 0.2449,-0.62755 2.57148,-1.79084 2.34189,1.45412 0,0.9643 -0.13776,2.02045 -0.2143,3.06129 v 0 c 0,0.65818 -0.0918,1.33166 -0.12244,2.00515 -0.38267,4.59194 -1.53066,14.64829 -1.53066,14.64829 l 8.23488,-4.40826 c 19.89841,-12.58192 35.20487,-37.8682 46.77656,-77.25173 4.83684,-16.40854 8.37264,-32.70991 11.49515,-47.08269 3.73478,-17.18915 6.96445,-32.03642 10.71453,-37.77635 5.78584,-9.0155 14.61767,-15.10749 23.15868,-21.01578 l 3.48988,-2.41842 c 10.71453,-7.54608 21.42905,-16.25547 23.78625,-32.48031 v -0.36736 c 1.83677,-11.8625 0.38265,-14.95441 -1.25514,-16.37791 z"
     id="path22"
     style="stroke-width:1.53065" />
  <metadata
     id="metadata200">
    <rdf:RDF>
      <cc:Work
         rdf:about="">
        <dc:title>MDB-HLogo_RGB</dc:title>
      </cc:Work>
    </rdf:RDF>
  </metadata>
</svg>
