<svg class="svg-inline--fa fa-paint-brush fa-w-16" aria-hidden="true" data-icon="paint-brush" data-prefix="fas" focusable="false" role="img" version="1.1" viewBox="0 0 512 512" xmlns="http://www.w3.org/2000/svg">
 <path d="m167 309c-40 2.6-77 18-97 72-2.4 6.2-8 10-15 10-11 0-45-28-55-34 .01 82 38 155 128 155 76 0 128-44 128-120 0-3.1-.65-6.1-.97-9.1l-88-73zm291-309c-15 0-29 6.7-40 16-204 183-226 187-226 241 0 14 3.2 27 8.7 39l64 53c7.2 1.8 15 3 22 3 62 0 98-45 211-256 7.4-14 14-30 14-46 0-29-26-50-54-50z" fill="#000"/>
</svg>
