<?xml version="1.0" encoding="UTF-8" standalone="no"?>
<svg
   viewBox="0 -1 100 50"
   version="1.1"
   id="svg8"
   sodipodi:docname="php.svg"
   inkscape:version="1.2 (dc2aedaf03, 2022-05-15)"
   xmlns:inkscape="http://www.inkscape.org/namespaces/inkscape"
   xmlns:sodipodi="http://sodipodi.sourceforge.net/DTD/sodipodi-0.dtd"
   xmlns="http://www.w3.org/2000/svg"
   xmlns:svg="http://www.w3.org/2000/svg">
  <defs
     id="defs12" />
  <sodipodi:namedview
     id="namedview10"
     pagecolor="#ffffff"
     bordercolor="#666666"
     borderopacity="1.0"
     inkscape:showpageshadow="2"
     inkscape:pageopacity="0"
     inkscape:pagecheckerboard="0"
     inkscape:deskcolor="#d1d1d1"
     showgrid="false"
     inkscape:zoom="4.53609"
     inkscape:cx="24.911322"
     inkscape:cy="25.793139"
     inkscape:window-width="1786"
     inkscape:window-height="1038"
     inkscape:window-x="120"
     inkscape:window-y="0"
     inkscape:window-maximized="0"
     inkscape:current-layer="svg8" />
  <path
     id="path852"
     style="color:#000000;fill:#6f75c4;fill-opacity:1;stroke-width:0.820456;stroke-linecap:round;stroke-linejoin:round;-inkscape-stroke:none"
     d="m 44.384472,4.000002 a 0.4133385,0.40714079 0 0 0 -0.369744,0.3037652 0.4133385,0.40714079 0 0 0 -0.03552,0.023857 L 37.669335,35.313264 a 0.41337983,0.40718151 0 0 0 0.405267,0.488251 h 6.04669 a 0.41337983,0.40718151 0 0 0 0.405265,-0.327621 l 3.526295,-17.406859 4.520889,0.03976 a 0.41337983,0.40718151 0 0 0 0.0033,0 c 1.493781,0 2.36107,0.314222 2.694774,0.745894 0.346182,0.447817 0.467022,1.349877 0.185679,2.737067 l -2.803005,13.72351 a 0.41337983,0.40718151 0 0 0 0.405265,0.488251 h 6.133878 a 0.41337983,0.40718151 0 0 0 0.405266,-0.327622 l 2.935349,-14.370797 a 0.41337983,0.40718151 0 0 0 0,-0.0017 0.41337983,0.40718151 0 0 0 0,-0.0017 0.41337983,0.40718151 0 0 0 0,-0.0017 C 62.847352,19.453285 62.898661,18.052689 62.66503,16.886636 62.43166,15.721882 61.899257,14.785371 61.071416,14.144797 59.506298,12.912 57.194523,12.301521 54.162528,12.242686 a 0.41337983,0.40718151 0 0 0 -0.008,0 H 49.22835 L 50.83488,4.4880831 A 0.41337983,0.40718151 0 0 0 50.429548,4.000002 Z m -27.706596,8.243011 a 0.4133385,0.40714079 0 0 0 -0.111408,0.04612 0.4133385,0.40714079 0 0 0 -0.142085,0.05726 0.4133385,0.40714079 0 0 0 -0.08557,0.125642 0.4133385,0.40714079 0 0 0 -0.0662,0.0986 l -6.264658,30.942697 a 0.41337983,0.40718151 0 0 0 0.405266,0.48666 h 6.090285 a 0.41337983,0.40718151 0 0 0 0.405266,-0.326031 l 1.59845,-7.872448 h 4.918082 c 1.81307,0 3.571881,-0.205954 5.270066,-0.617073 1.752818,-0.424347 3.383548,-1.422977 4.885791,-2.961314 1.226939,-1.209847 2.18889,-2.571216 2.880452,-4.079359 0.716684,-1.500121 1.182927,-3.033834 1.393401,-4.599418 v -0.0032 c 0.536124,-3.407665 0.01616,-6.175619 -1.617831,-8.209612 -1.640314,-2.041861 -4.288892,-3.059402 -7.813067,-3.088544 a 0.41337983,0.40718151 0 0 0 -0.0033,0 z m 51.943409,0 a 0.4133385,0.40714079 0 0 0 -0.369744,0.303764 0.4133385,0.40714079 0 0 0 -0.03552,0.02386 l -6.266275,30.9427 a 0.41337983,0.40718151 0 0 0 0.405265,0.486661 h 6.090284 a 0.41337983,0.40718151 0 0 0 0.405266,-0.326032 l 1.598457,-7.872448 h 4.919697 c 1.813069,0 3.570267,-0.205953 5.268452,-0.617073 1.752818,-0.424347 3.385164,-1.422977 4.887404,-2.961313 1.226942,-1.209847 2.188894,-2.571217 2.880452,-4.079359 0.716686,-1.500121 1.181313,-3.033834 1.391789,-4.59942 v -0.0032 c 0.536124,-3.407664 0.01616,-6.175624 -1.617832,-8.209616 -1.640314,-2.041862 -4.287279,-3.059402 -7.811452,-3.088545 a 0.41337983,0.40718151 0 0 0 -0.0049,0 z m -44.913426,5.733368 c 2.301197,-0.02697 4.200577,0.189354 5.688249,0.631387 a 0.41337983,0.40718151 0 0 0 0.0033,0 c 0.664538,0.193834 1.064634,0.602585 1.298141,1.375691 0.233508,0.773105 0.245468,1.912162 -0.0113,3.387538 -0.315569,1.766156 -0.781277,3.146656 -1.372414,4.135024 -0.590044,0.986544 -1.288439,1.577068 -2.111901,1.844857 -1.810942,0.55778 -4.108551,0.829758 -6.883055,0.801558 a 0.41337983,0.40718151 0 0 0 -0.0033,0 h -0.613551 c -0.01017,0 -0.02049,-0.0031 -0.03067,-0.0032 l 2.462269,-12.128348 h 0.547351 c 0.329671,0 0.671791,-0.01602 1.026887,-0.04454 z m 51.943409,0 c 2.301197,-0.02697 4.200579,0.189354 5.688249,0.631387 a 0.41337983,0.40718151 0 0 0 0.0017,0 c 0.664537,0.193834 1.064634,0.602585 1.298143,1.375691 0.233506,0.773105 0.245466,1.912162 -0.0113,3.387538 l 0.0017,-0.0017 c -0.315575,1.767039 -0.782685,3.147903 -1.374028,4.136615 -0.589733,0.986023 -1.287391,1.576867 -2.110287,1.844856 h -0.0017 c -1.810732,0.557496 -4.107636,0.829751 -6.881441,0.801559 a 0.41337983,0.40718151 0 0 0 -0.0049,0 H 71.64388 c -0.0096,0 -0.01945,-0.0015 -0.02906,-0.0017 l 2.462266,-12.129858 h 0.54735 c 0.329673,0 0.671791,-0.01602 1.026889,-0.04454 z" />
</svg>
