<?xml version="1.0" encoding="UTF-8" standalone="no"?>
<!-- Created with Inkscape (http://www.inkscape.org/) -->

<svg
   version="1.1"
   width="180"
   height="180"
   id="svg2985"
   xml:space="preserve"
   sodipodi:docname="sqlite.svg"
   inkscape:version="1.2 (dc2aedaf03, 2022-05-15)"
   xmlns:inkscape="http://www.inkscape.org/namespaces/inkscape"
   xmlns:sodipodi="http://sodipodi.sourceforge.net/DTD/sodipodi-0.dtd"
   xmlns:xlink="http://www.w3.org/1999/xlink"
   xmlns="http://www.w3.org/2000/svg"
   xmlns:svg="http://www.w3.org/2000/svg"
   xmlns:rdf="http://www.w3.org/1999/02/22-rdf-syntax-ns#"
   xmlns:cc="http://creativecommons.org/ns#"
   xmlns:dc="http://purl.org/dc/elements/1.1/"><sodipodi:namedview
     id="namedview1906"
     pagecolor="#ffffff"
     bordercolor="#666666"
     borderopacity="1.0"
     inkscape:showpageshadow="2"
     inkscape:pageopacity="0.0"
     inkscape:pagecheckerboard="0"
     inkscape:deskcolor="#d1d1d1"
     showgrid="false"
     inkscape:zoom="3.3599449"
     inkscape:cx="171.72901"
     inkscape:cy="101.48976"
     inkscape:window-width="1786"
     inkscape:window-height="1038"
     inkscape:window-x="120"
     inkscape:window-y="0"
     inkscape:window-maximized="0"
     inkscape:current-layer="svg2985" /><title
     id="title2998">SQLite</title><metadata
     id="metadata2991"><rdf:RDF><cc:Work
         rdf:about=""><dc:format>image/svg+xml</dc:format><dc:type
           rdf:resource="http://purl.org/dc/dcmitype/StillImage" /><dc:title>SQLite</dc:title></cc:Work></rdf:RDF></metadata><defs
     id="defs2989"><linearGradient
       x1="0"
       y1="0"
       x2="1"
       y2="0"
       id="linearGradient3027"
       gradientUnits="userSpaceOnUse"
       gradientTransform="matrix(-4.02e-6,-91.8907,-91.8907,4.02e-6,85.8809,161.434)"
       spreadMethod="pad"><stop
         id="stop3029"
         style="stop-color:#97d9f6;stop-opacity:1"
         offset="0" /><stop
         id="stop3031"
         style="stop-color:#0f80cc;stop-opacity:1"
         offset="0.92024499" /><stop
         id="stop3033"
         style="stop-color:#0f80cc;stop-opacity:1"
         offset="1" /></linearGradient><linearGradient
       x1="-15.614694"
       y1="-9.1082983"
       x2="-6.7410073"
       y2="-9.1082983"
       id="linearGradient5421"
       xlink:href="#linearGradient3027"
       gradientUnits="userSpaceOnUse"
       gradientTransform="matrix(-4.02e-7,-9.18907,-9.18907,4.02e-7,8.58809,16.1434)"
       spreadMethod="pad" /><linearGradient
       x1="-15.614694"
       y1="-9.1082983"
       x2="-6.7410073"
       y2="-9.1082983"
       id="linearGradient2995"
       xlink:href="#linearGradient3027"
       gradientUnits="userSpaceOnUse"
       gradientTransform="matrix(-5.025e-7,11.486337,-11.486337,-5.025e-7,-30.839638,202.18698)"
       spreadMethod="pad" /></defs><path
     id="solid-background"
     style="fill:#0f80cc;fill-opacity:1;fill-rule:nonzero;stroke:none;stroke-width:1.06829"
     d="M 26.720703 13.294922 C 19.596293 13.294922 13.767578 19.123905 13.767578 26.248047 L 13.767578 143.47656 C 13.767578 150.6003 19.596293 156.42969 26.720703 156.42969 L 87.628906 156.42969 C 87.159126 150.37498 87.012886 143.84394 87.257812 137.40234 C 87.223324 136.95589 87.201723 136.68582 87.189453 136.51953 C 87.124773 136.09617 85.787624 127.36799 84.005859 120.51562 L 84.003906 120.51367 L 84.003906 120.50977 C 83.19678 117.39702 82.022077 114.52693 81.998047 114.48633 L 81.996094 114.48242 L 81.994141 114.47852 C 80.098604 111.26823 80.524703 109.86232 80.533203 108.57422 C 80.541712 107.28612 80.674645 106.1999 80.855469 105.03125 C 81.217114 102.69396 81.820928 100.09315 82.644531 97.052734 L 82.652344 97.025391 L 82.626953 96.978516 L 83.072266 95.472656 L 88.351562 75.988281 L 88.681641 76.558594 C 94.056171 54.566275 105.92138 29.741452 120.3457 13.294922 L 26.720703 13.294922 z " /><path
     d="m 157.81699,9.4566106 c -7.2804,-6.492537 -16.09513,-3.8845721 -24.79503,3.8364994 -1.29129,1.147078 -2.57992,2.419679 -3.86187,3.779079 -14.88262,15.788003 -28.69696,45.032463 -32.988821,67.366417 1.671875,3.390488 2.977861,7.717066 3.837831,11.02209 0.22034,0.847955 0.41931,1.643835 0.57822,2.320865 0.3779,1.6023 0.58088,2.641349 0.58088,2.641349 0,0 -0.13354,-0.504909 -0.68104,-2.092519 -0.10415,-0.30446 -0.22033,-0.63697 -0.35787,-1.02823 -0.0588,-0.16158 -0.140217,-0.35788 -0.229686,-0.56753 -0.970809,-2.256762 -3.656225,-7.020004 -4.838022,-9.093823 -1.01087,2.981866 -1.904228,5.771441 -2.652032,8.295273 3.411854,6.242559 5.491015,16.940689 5.491015,16.940689 0,0 -0.180274,-0.69332 -1.037578,-3.11312 -0.761157,-2.1402 -4.552254,-8.78256 -5.450286,-10.335459 -1.536202,5.671029 -2.146597,9.499779 -1.59616,10.431999 1.068692,1.80635 2.086506,4.92309 2.980265,8.36993 2.019069,7.765 3.422536,17.21791 3.422536,17.21791 0,0 0.0454,0.62641 0.121518,1.59041 -0.280426,6.52085 -0.11217,13.28166 0.392597,19.39255 0.669017,8.08936 1.928265,15.03847 3.533373,18.75758 l 1.08966,-0.5941 c -2.356921,-7.32727 -3.314377,-16.92987 -2.895073,-28.00404 0.634298,-16.9272 4.529553,-37.34063 11.727163,-58.617117 12.15982,-32.118162 29.0308,-57.888007 44.47161,-70.194717 -14.07339,12.70999 -33.12102,53.851203 -38.82302,69.086365 -6.38437,17.060599 -10.90858,33.070419 -13.6354,48.409329 4.70449,-14.38012 19.91561,-20.56139 19.91561,-20.56139 0,0 7.46068,-9.20105 16.17927,-22.346241 -5.22261,1.191144 -13.79831,3.230244 -16.67068,4.437412 -4.23711,1.77737 -5.37884,2.38362 -5.37884,2.38362 0,0 13.72486,-8.358035 25.5001,-12.142456 C 157.94118,61.539793 175.584,25.30604 157.81699,9.4566106"
     id="feather"
     style="fill:#003b57;fill-opacity:1;fill-rule:nonzero;stroke:none;stroke-width:1.06829" /></svg>
