<svg class="svg-inline--fa fa-university fa-w-16" aria-hidden="true" data-icon="university" data-prefix="fas" focusable="false" role="img" version="1.1" viewBox="0 0 512 512" xmlns="http://www.w3.org/2000/svg"><path d="m496 128v16a8 8 0 01-8 8h-24v12c0 6.63-5.37 12-12 12h-392c-6.63 0-12-5.37-12-12v-12h-24a8 8 0 01-8-8v-16a8 8 0 014.94-7.39l232-88a8 8 0 016.12 0l232 88a8 8 0 014.94 7.39zm-24 304h-432c-13.3 0-24 10.7-24 24v16a8 8 0 008 8h464a8 8 0 008-8v-16c0-13.3-10.7-24-24-24zm-376-240v192h-36c-6.63 0-12 5.37-12 12v20h416v-20c0-6.63-5.37-12-12-12h-36v-192h-64v192h-64v-192h-64v192h-64v-192h-64z" fill="#000"/></svg>
