<svg class="svg-inline--fa fa-laptop-code fa-w-20" aria-hidden="true" data-icon="laptop-code" data-prefix="fas" focusable="false" role="img" version="1.1" viewBox="0 0 640 512" xmlns="http://www.w3.org/2000/svg">
 <path d="m255 262c6.2 6.2 16 6.2 23 0l11-11c6.2-6.2 6.2-16 0-23l-36-36 36-36c6.2-6.2 6.2-16 0-23l-11-11c-6.2-6.2-16-6.2-23 0l-58 58c-6.2 6.2-6.2 16 0 23l58 58zm96-11 11 11c6.2 6.2 16 6.2 23 0l58-58c6.2-6.2 6.2-16 0-23l-58-58c-6.2-6.2-16-6.2-23 0l-11 11c-6.2 6.2-6.2 16 0 23l36 36-36 36c-6.2 6.2-6.2 16 0 23zm273 166h-242c-.74 20-15 32-33 32h-61c-19 0-33-17-33-32h-239c-8.8 0-16 7.2-16 16v16c0 35 29 64 64 64h512c35 0 64-29 64-64v-16c0-8.8-7.2-16-16-16zm-48-368c0-26-22-48-48-48h-416c-26 0-48 22-48 48v336h512v-336zm-64 272h-384v-256h384v256z" fill="#000"/>
</svg>
