<svg class="svg-inline--fa fa-globe fa-w-16" aria-hidden="true" data-icon="globe" data-prefix="fas" focusable="false" role="img" version="1.1" viewBox="0 0 496 512" xmlns="http://www.w3.org/2000/svg">
 <path d="m336 160c-14-89-49-152-88-152s-74 63-88 152h177zm-184 96c0 22 1.2 44 3.3 64h185c2.1-20 3.3-42 3.3-64s-1.2-44-3.3-64h-185c-2.1 20-3.3 42-3.3 64zm325-96c-29-68-86-120-158-142 24 34 41 85 50 142h108zm-300-142c-71 21-129 74-158 142h108c8.7-57 26-108 50-142zm310 174h-115c2.1 21 3.3 42 3.3 64s-1.2 43-3.3 64h115c5.5-20 8.6-42 8.6-64s-3.1-44-8.5-64zm-367 64c0-22 1.2-43 3.3-64h-115c-5.4 20-8.6 42-8.6 64s3.2 44 8.6 64h115c-2-21-3.2-42-3.2-64zm40 96c14 89 49 152 88 152s74-63 88-152h-177zm159 142c71-21 129-74 158-142h-108c-8.8 57-26 108-50 142zm-300-142c29 68 86 120 158 142-24-34-41-85-50-142h-108z" fill="#fff"/>
</svg>
